<!--?xml version="1.0" encoding="us-ascii" standalone="no"?--><svg xmlns="http://www.w3.org/2000/svg" xmlns:xlink="http://www.w3.org/1999/xlink" contentstyletype="text/css" height="281px" preserveAspectRatio="none" style="width:502px;height:281px;background:#FFFFFF;" version="1.1" viewBox="0 0 502 281" width="502px" zoomAndPan="magnify"><defs></defs><g><!--entity Bridge--><g id="elem_Bridge"><polygon fill="#F1F1F1" points="192.5,122.3,202.5,112.3,308.5,112.3,308.5,148.5969,298.5,158.5969,192.5,158.5969,192.5,122.3" style="stroke:#181818;stroke-width:0.5;"></polygon><line style="stroke:#181818;stroke-width:0.5;" x1="298.5" x2="308.5" y1="122.3" y2="112.3"></line><line style="stroke:#181818;stroke-width:0.5;" x1="192.5" x2="298.5" y1="122.3" y2="122.3"></line><line style="stroke:#181818;stroke-width:0.5;" x1="298.5" x2="298.5" y1="122.3" y2="158.5969"></line><text fill="#000000" font-family="sans-serif" font-size="14" lengthAdjust="spacing" textLength="76" x="207.5" y="145.2951">ESP Bridge</text></g><!--entity Sensor1--><g id="elem_Sensor1"><polygon fill="#F1F1F1" points="16,16,26,6,149,6,149,42.2969,139,52.2969,16,52.2969,16,16" style="stroke:#181818;stroke-width:0.5;"></polygon><line style="stroke:#181818;stroke-width:0.5;" x1="139" x2="149" y1="16" y2="6"></line><line style="stroke:#181818;stroke-width:0.5;" x1="16" x2="139" y1="16" y2="16"></line><line style="stroke:#181818;stroke-width:0.5;" x1="139" x2="139" y1="16" y2="52.2969"></line><text fill="#000000" font-family="sans-serif" font-size="14" lengthAdjust="spacing" textLength="93" x="31" y="38.9951">ESP Sensor 1</text></g><!--entity Sensor2--><g id="elem_Sensor2"><polygon fill="#F1F1F1" points="184,16,194,6,317,6,317,42.2969,307,52.2969,184,52.2969,184,16" style="stroke:#181818;stroke-width:0.5;"></polygon><line style="stroke:#181818;stroke-width:0.5;" x1="307" x2="317" y1="16" y2="6"></line><line style="stroke:#181818;stroke-width:0.5;" x1="184" x2="307" y1="16" y2="16"></line><line style="stroke:#181818;stroke-width:0.5;" x1="307" x2="307" y1="16" y2="52.2969"></line><text fill="#000000" font-family="sans-serif" font-size="14" lengthAdjust="spacing" textLength="93" x="199" y="38.9951">ESP Sensor 2</text></g><!--entity Sensor3--><g id="elem_Sensor3"><polygon fill="#F1F1F1" points="352,16,362,6,485,6,485,42.2969,475,52.2969,352,52.2969,352,16" style="stroke:#181818;stroke-width:0.5;"></polygon><line style="stroke:#181818;stroke-width:0.5;" x1="475" x2="485" y1="16" y2="6"></line><line style="stroke:#181818;stroke-width:0.5;" x1="352" x2="475" y1="16" y2="16"></line><line style="stroke:#181818;stroke-width:0.5;" x1="475" x2="475" y1="16" y2="52.2969"></line><text fill="#000000" font-family="sans-serif" font-size="14" lengthAdjust="spacing" textLength="93" x="367" y="38.9951">ESP Sensor 3</text></g><!--entity WifiAP--><g id="elem_WifiAP"><polygon fill="#F1F1F1" points="176,228.59,186,218.59,325,218.59,325,254.8869,315,264.8869,176,264.8869,176,228.59" style="stroke:#181818;stroke-width:0.5;"></polygon><line style="stroke:#181818;stroke-width:0.5;" x1="315" x2="325" y1="228.59" y2="218.59"></line><line style="stroke:#181818;stroke-width:0.5;" x1="176" x2="315" y1="228.59" y2="228.59"></line><line style="stroke:#181818;stroke-width:0.5;" x1="315" x2="315" y1="228.59" y2="264.8869"></line><text fill="#000000" font-family="sans-serif" font-size="14" lengthAdjust="spacing" textLength="109" x="191" y="251.5851">Wifi AP/Gateway</text></g><!--link Sensor1 to Bridge--><g id="link_Sensor1_Bridge"><path d="M118.95,52.78 C147.13,70.27 180.8623,91.2156 209.0223,108.6956 " fill="none" id="Sensor1-to-Bridge" style="stroke:#181818;stroke-width:1.0;"></path><polygon fill="#181818" points="214.12,111.86,208.583,103.715,209.8719,109.223,204.3638,110.5119,214.12,111.86" style="stroke:#181818;stroke-width:1.0;"></polygon></g><!--link Sensor2 to Bridge--><g id="link_Sensor2_Bridge"><path d="M250.5,52.78 C250.5,70.27 250.5,88.38 250.5,105.86 " fill="none" id="Sensor2-to-Bridge" style="stroke:#181818;stroke-width:1.0;"></path><polygon fill="#181818" points="250.5,111.86,254.5,102.86,250.5,106.86,246.5,102.86,250.5,111.86" style="stroke:#181818;stroke-width:1.0;"></polygon></g><!--link Sensor3 to Bridge--><g id="link_Sensor3_Bridge"><path d="M382.05,52.78 C353.87,70.27 320.1377,91.2156 291.9777,108.6956 " fill="none" id="Sensor3-to-Bridge" style="stroke:#181818;stroke-width:1.0;"></path><polygon fill="#181818" points="286.88,111.86,296.6362,110.5119,291.1281,109.223,292.417,103.715,286.88,111.86" style="stroke:#181818;stroke-width:1.0;"></polygon></g><!--link Bridge to WifiAP--><g id="link_Bridge_WifiAP"><path d="M250.5,159.08 C250.5,176.57 250.5,194.67 250.5,212.15 " fill="none" id="Bridge-to-WifiAP" style="stroke:#181818;stroke-width:1.0;"></path><polygon fill="#181818" points="250.5,218.15,254.5,209.15,250.5,213.15,246.5,209.15,250.5,218.15" style="stroke:#181818;stroke-width:1.0;"></polygon></g><!--SRC=[oyjFILLGSWqEK70goan9JrLII2o6Chdou7B1gNd5-KKAXc1P2CSGKze8ITe8KzeOITeOAXsUcPQfu1YWxvvOabgUM0bM0H9p3E3YWjgZeAjh1tCHr6nC8MDa8GW55e6O1G00]--></g></svg>